<svg width="425" height="100" viewBox="0 0 425 160" fill="none" xmlns="http://www.w3.org/2000/svg">
<path d="M8.12429 88.5145C10.279 88.7862 12.2479 88.9276 14.066 88.9293C59.9474 95.2148 101.069 100.672 137.806 105.365C133.602 106.951 129.783 108.602 126.491 110.32C123.522 111.869 120.794 113.567 118.55 115.448C116.358 117.287 114.219 119.639 113.038 122.603C111.748 125.843 111.798 129.357 113.364 132.65C114.799 135.666 117.269 138.015 119.97 139.887C125.328 143.601 133.695 146.859 144.981 149.892C154.64 152.488 162.461 153.657 168.102 152.622C171.082 152.075 174.337 150.749 176.568 147.784C178.841 144.764 179.113 141.297 178.718 138.475C177.994 133.304 174.67 127.596 170.946 122.283C168.695 119.072 166.017 115.627 163.049 112.027C165.949 111.231 168.949 110.446 172.03 109.673C284.977 123.667 351.078 129.472 383.839 129.323C392.059 129.286 398.526 128.876 403.23 128.026C405.562 127.605 407.808 127.017 409.723 126.12C411.489 125.293 414.095 123.679 415.349 120.578C416.769 117.069 415.626 113.884 414.377 111.922C413.194 110.063 411.516 108.57 409.966 107.403C406.795 105.012 402.243 102.578 396.914 100.124C375.531 90.2779 334.587 76.9898 288.85 62.7627C275.84 58.7158 262.413 54.5846 248.882 50.4212C214.565 39.8624 179.575 29.0963 148.998 18.973C127.146 11.7386 111.233 7.94257 100.209 7.15674C94.7328 6.76642 89.8282 7.06362 85.8252 8.50178C81.5299 10.0449 78.0264 13.0399 76.6131 17.665C75.344 21.8181 76.1473 26.1063 77.4148 29.7246C78.7238 33.4615 80.8563 37.4067 83.406 41.3783C86.255 45.8162 89.8332 50.6034 93.8587 55.5793L93.4576 55.5669L93.6555 55.7916C57.5907 55.7274 40.6132 59.8729 30.7406 65.111C26.2722 67.4818 23.1879 70.2001 21.2151 71.9388C20.7316 72.3649 20.3149 72.7322 19.9609 73.0211C19.0243 73.7855 18.4178 74.1553 17.8009 74.3987C17.2469 74.6173 16.384 74.8502 14.902 74.913L12.8706 74.6345L12.8348 74.8959C11.9818 74.853 11.0029 74.7667 9.87571 74.6245L8.12429 88.5145Z" stroke="black" stroke-opacity="0.47" stroke-width="14"/>
<path d="M0.671508 84.7024C2.90763 84.9988 4.86482 85.134 6.60496 85.118C55.8063 92.2043 99.7679 98.3321 138.915 103.578C140.932 105.904 142.901 108.197 144.804 110.444C137.456 112.991 131.016 115.659 125.96 118.431C123.037 120.033 120.513 121.705 118.527 123.456C116.556 125.194 114.988 127.12 114.178 129.258C113.335 131.482 113.366 133.803 114.389 136.063C115.373 138.238 117.199 140.194 119.659 141.986C124.555 145.553 132.641 148.957 144.319 152.255C154.366 155.094 161.642 156.086 166.415 155.166C168.873 154.691 170.966 153.651 172.297 151.792C173.626 149.935 173.885 147.694 173.589 145.47C173.015 141.164 170.212 135.805 166.324 129.974C162.893 124.83 158.428 119.047 153.361 112.887C158.883 111.151 164.839 109.463 171.077 107.83C289.685 123.29 358.717 129.654 392.686 129.491C401.189 129.451 407.625 129.002 412.137 128.145C414.386 127.718 416.284 127.167 417.757 126.442C419.191 125.735 420.571 124.691 421.187 123.088C421.848 121.373 421.382 119.713 420.587 118.399C419.813 117.122 418.593 115.918 417.159 114.782C414.271 112.494 409.895 110.001 404.399 107.341C382.399 96.6908 339.953 82.1955 292.047 66.5313C278.485 62.0967 264.475 57.5653 250.346 52.9957C214.466 41.3908 177.824 29.5394 145.82 18.4014C123.068 10.4832 106.894 6.47755 95.9796 5.6597C90.5341 5.25167 86.1617 5.6158 82.8723 6.85806C79.4651 8.14479 77.1714 10.4082 76.2507 13.5752C75.3796 16.5719 75.8523 20.0013 77.0253 23.5215C78.212 27.0826 80.2147 31.0292 82.7763 35.2236C87.1759 42.4274 93.3839 50.6174 100.435 59.2138L100.397 59.2126L100.419 59.2385C55.1997 58.1925 36.0851 63.0899 25.9296 68.7538C21.8274 71.0417 19.1691 73.4955 17.0892 75.4153C16.504 75.9555 15.9645 76.4534 15.4516 76.8935C14.2676 77.9094 13.1996 78.6615 11.924 79.1906C10.6891 79.7028 9.13083 80.0582 6.92262 80.1122L4.40754 79.7497L4.36389 80.0524C3.44353 79.993 2.43597 79.8926 1.32849 79.7458L0.671508 84.7024Z" fill="#D9D9D9"/>
<path d="M0.671508 84.7024C2.90763 84.9988 4.86482 85.134 6.60496 85.118C55.8063 92.2043 99.7679 98.3321 138.915 103.578C140.932 105.904 142.901 108.197 144.804 110.444C137.456 112.991 131.016 115.659 125.96 118.431C123.037 120.033 120.513 121.705 118.527 123.456C116.556 125.194 114.988 127.12 114.178 129.258C113.335 131.482 113.366 133.803 114.389 136.063C115.373 138.238 117.199 140.194 119.659 141.986C124.555 145.553 132.641 148.957 144.319 152.255C154.366 155.094 161.642 156.086 166.415 155.166C168.873 154.691 170.966 153.651 172.297 151.792C173.626 149.935 173.885 147.694 173.589 145.47C173.015 141.164 170.212 135.805 166.324 129.974C162.893 124.83 158.428 119.047 153.361 112.887C158.883 111.151 164.839 109.463 171.077 107.83C289.685 123.29 358.717 129.654 392.686 129.491C401.189 129.451 407.625 129.002 412.137 128.145C414.386 127.718 416.284 127.167 417.757 126.442C419.191 125.735 420.571 124.691 421.187 123.088C421.848 121.373 421.382 119.713 420.587 118.399C419.813 117.122 418.593 115.918 417.159 114.782C414.271 112.494 409.895 110.001 404.399 107.341C382.399 96.6908 339.953 82.1955 292.047 66.5313C278.485 62.0967 264.475 57.5653 250.346 52.9957C214.466 41.3908 177.824 29.5394 145.82 18.4014C123.068 10.4832 106.894 6.47755 95.9796 5.6597C90.5341 5.25167 86.1617 5.6158 82.8723 6.85806C79.4651 8.14479 77.1714 10.4082 76.2507 13.5752C75.3796 16.5719 75.8523 20.0013 77.0253 23.5215C78.212 27.0826 80.2147 31.0292 82.7763 35.2236C87.1759 42.4274 93.3839 50.6174 100.435 59.2138L100.397 59.2126L100.419 59.2385C55.1997 58.1925 36.0851 63.0899 25.9296 68.7538C21.8274 71.0417 19.1691 73.4955 17.0892 75.4153C16.504 75.9555 15.9645 76.4534 15.4516 76.8935C14.2676 77.9094 13.1996 78.6615 11.924 79.1906C10.6891 79.7028 9.13083 80.0582 6.92262 80.1122L4.40754 79.7497L4.36389 80.0524C3.44353 79.993 2.43597 79.8926 1.32849 79.7458L0.671508 84.7024Z" fill="url(#paint0_linear_3_15)" fill-opacity="0.2"/>
<path d="M0.671508 84.7024C2.90763 84.9988 4.86482 85.134 6.60496 85.118C55.8063 92.2043 99.7679 98.3321 138.915 103.578C140.932 105.904 142.901 108.197 144.804 110.444C137.456 112.991 131.016 115.659 125.96 118.431C123.037 120.033 120.513 121.705 118.527 123.456C116.556 125.194 114.988 127.12 114.178 129.258C113.335 131.482 113.366 133.803 114.389 136.063C115.373 138.238 117.199 140.194 119.659 141.986C124.555 145.553 132.641 148.957 144.319 152.255C154.366 155.094 161.642 156.086 166.415 155.166C168.873 154.691 170.966 153.651 172.297 151.792C173.626 149.935 173.885 147.694 173.589 145.47C173.015 141.164 170.212 135.805 166.324 129.974C162.893 124.83 158.428 119.047 153.361 112.887C158.883 111.151 164.839 109.463 171.077 107.83C289.685 123.29 358.717 129.654 392.686 129.491C401.189 129.451 407.625 129.002 412.137 128.145C414.386 127.718 416.284 127.167 417.757 126.442C419.191 125.735 420.571 124.691 421.187 123.088C421.848 121.373 421.382 119.713 420.587 118.399C419.813 117.122 418.593 115.918 417.159 114.782C414.271 112.494 409.895 110.001 404.399 107.341C382.399 96.6908 339.953 82.1955 292.047 66.5313C278.485 62.0967 264.475 57.5653 250.346 52.9957C214.466 41.3908 177.824 29.5394 145.82 18.4014C123.068 10.4832 106.894 6.47755 95.9796 5.6597C90.5341 5.25167 86.1617 5.6158 82.8723 6.85806C79.4651 8.14479 77.1714 10.4082 76.2507 13.5752C75.3796 16.5719 75.8523 20.0013 77.0253 23.5215C78.212 27.0826 80.2147 31.0292 82.7763 35.2236C87.1759 42.4274 93.3839 50.6174 100.435 59.2138L100.397 59.2126L100.419 59.2385C55.1997 58.1925 36.0851 63.0899 25.9296 68.7538C21.8274 71.0417 19.1691 73.4955 17.0892 75.4153C16.504 75.9555 15.9645 76.4534 15.4516 76.8935C14.2676 77.9094 13.1996 78.6615 11.924 79.1906C10.6891 79.7028 9.13083 80.0582 6.92262 80.1122L4.40754 79.7497L4.36389 80.0524C3.44353 79.993 2.43597 79.8926 1.32849 79.7458L0.671508 84.7024Z" stroke="#1F0000" stroke-width="5"/>
<path d="M92.3546 66.7273C92.0478 64.1364 90.8035 62.125 88.6217 60.6932C86.4399 59.2614 83.7637 58.5455 80.5933 58.5455C78.2751 58.5455 76.2467 58.9205 74.508 59.6705C72.7864 60.4205 71.4399 61.4517 70.4683 62.7642C69.5137 64.0767 69.0364 65.5682 69.0364 67.2386C69.0364 68.6364 69.3688 69.8381 70.0336 70.8438C70.7154 71.8324 71.5847 72.6591 72.6416 73.3239C73.6984 73.9716 74.8063 74.5085 75.9654 74.9347C77.1245 75.3437 78.1898 75.6761 79.1614 75.9318L84.4796 77.3636C85.8433 77.7216 87.3603 78.2159 89.0308 78.8466C90.7183 79.4773 92.3291 80.3381 93.8631 81.429C95.4143 82.5028 96.6927 83.8835 97.6984 85.571C98.7041 87.2585 99.2069 89.3295 99.2069 91.7841C99.2069 94.6136 98.4654 97.1705 96.9825 99.4545C95.5166 101.739 93.3688 103.554 90.5393 104.901C87.7268 106.247 84.3092 106.92 80.2864 106.92C76.5364 106.92 73.2893 106.315 70.545 105.105C67.8177 103.895 65.67 102.207 64.1018 100.043C62.5506 97.8778 61.6728 95.3636 61.4683 92.5H68.0137C68.1842 94.4773 68.8489 96.1136 70.008 97.4091C71.1842 98.6875 72.6671 99.642 74.4569 100.273C76.2637 100.886 78.2069 101.193 80.2864 101.193C82.7069 101.193 84.8802 100.801 86.8063 100.017C88.7325 99.2159 90.258 98.108 91.383 96.6932C92.508 95.2614 93.0705 93.5909 93.0705 91.6818C93.0705 89.9432 92.5847 88.5284 91.6131 87.4375C90.6416 86.3466 89.3631 85.4602 87.7779 84.7784C86.1927 84.0966 84.4796 83.5 82.6387 82.9886L76.1955 81.1477C72.1046 79.9716 68.866 78.2926 66.4796 76.1108C64.0933 73.929 62.9001 71.0739 62.9001 67.5455C62.9001 64.6136 63.6927 62.0568 65.2779 59.875C66.8802 57.6761 69.0279 55.9716 71.7211 54.7614C74.4313 53.5341 77.4569 52.9205 80.7978 52.9205C84.1728 52.9205 87.1728 53.5256 89.7978 54.7358C92.4228 55.929 94.5024 57.5653 96.0364 59.6449C97.5876 61.7244 98.4058 64.0852 98.491 66.7273H92.3546ZM118.448 53.6364V106H112.414V53.6364H118.448ZM149.055 106.818C145.509 106.818 142.398 105.974 139.722 104.287C137.063 102.599 134.984 100.239 133.484 97.2045C132.001 94.1705 131.259 90.625 131.259 86.5682C131.259 82.4773 132.001 78.9062 133.484 75.8551C134.984 72.804 137.063 70.4347 139.722 68.7472C142.398 67.0597 145.509 66.2159 149.055 66.2159C152.6 66.2159 155.702 67.0597 158.361 68.7472C161.038 70.4347 163.117 72.804 164.6 75.8551C166.1 78.9062 166.85 82.4773 166.85 86.5682C166.85 90.625 166.1 94.1705 164.6 97.2045C163.117 100.239 161.038 102.599 158.361 104.287C155.702 105.974 152.6 106.818 149.055 106.818ZM149.055 101.398C151.748 101.398 153.964 100.707 155.702 99.3267C157.441 97.946 158.728 96.1307 159.563 93.8807C160.398 91.6307 160.816 89.1932 160.816 86.5682C160.816 83.9432 160.398 81.4972 159.563 79.2301C158.728 76.9631 157.441 75.1307 155.702 73.733C153.964 72.3352 151.748 71.6364 149.055 71.6364C146.361 71.6364 144.146 72.3352 142.407 73.733C140.668 75.1307 139.381 76.9631 138.546 79.2301C137.711 81.4972 137.293 83.9432 137.293 86.5682C137.293 89.1932 137.711 91.6307 138.546 93.8807C139.381 96.1307 140.668 97.946 142.407 99.3267C144.146 100.707 146.361 101.398 149.055 101.398ZM196.741 66.7273V71.8409H176.388V66.7273H196.741ZM182.32 57.3182H188.354V94.75C188.354 96.4545 188.601 97.733 189.096 98.5852C189.607 99.4205 190.255 99.983 191.039 100.273C191.84 100.545 192.684 100.682 193.57 100.682C194.235 100.682 194.78 100.648 195.206 100.58C195.633 100.494 195.974 100.426 196.229 100.375L197.456 105.795C197.047 105.949 196.476 106.102 195.743 106.256C195.01 106.426 194.081 106.511 192.956 106.511C191.252 106.511 189.581 106.145 187.945 105.412C186.326 104.679 184.979 103.562 183.905 102.062C182.849 100.562 182.32 98.6705 182.32 96.3864V57.3182ZM211.079 106V53.6364H228.772C232.88 53.6364 236.238 54.3778 238.846 55.8608C241.471 57.3267 243.414 59.3125 244.676 61.8182C245.937 64.3239 246.568 67.1193 246.568 70.2045C246.568 73.2898 245.937 76.0937 244.676 78.6165C243.431 81.1392 241.505 83.1506 238.897 84.6506C236.289 86.1335 232.949 86.875 228.875 86.875H216.193V81.25H228.67C231.483 81.25 233.741 80.7642 235.446 79.7926C237.15 78.821 238.386 77.5085 239.153 75.8551C239.937 74.1847 240.329 72.3011 240.329 70.2045C240.329 68.108 239.937 66.233 239.153 64.5795C238.386 62.9261 237.142 61.6307 235.42 60.6932C233.699 59.7386 231.414 59.2614 228.568 59.2614H217.42V106H211.079ZM265.598 53.6364V106H259.564V53.6364H265.598ZM291.807 106.92C289.318 106.92 287.06 106.452 285.031 105.514C283.003 104.56 281.392 103.188 280.199 101.398C279.006 99.5909 278.409 97.4091 278.409 94.8523C278.409 92.6023 278.852 90.7784 279.739 89.3807C280.625 87.9659 281.81 86.858 283.293 86.0568C284.776 85.2557 286.412 84.6591 288.202 84.267C290.009 83.858 291.824 83.5341 293.648 83.2955C296.034 82.9886 297.969 82.7585 299.452 82.6051C300.952 82.4347 302.043 82.1534 302.725 81.7614C303.423 81.3693 303.773 80.6875 303.773 79.7159V79.5114C303.773 76.9886 303.082 75.0284 301.702 73.6307C300.338 72.233 298.267 71.5341 295.489 71.5341C292.608 71.5341 290.35 72.1648 288.713 73.4261C287.077 74.6875 285.926 76.0341 285.261 77.4659L279.534 75.4205C280.557 73.0341 281.921 71.1761 283.625 69.8466C285.347 68.5 287.222 67.5625 289.25 67.0341C291.296 66.4886 293.307 66.2159 295.284 66.2159C296.546 66.2159 297.994 66.3693 299.631 66.6761C301.284 66.9659 302.878 67.571 304.412 68.4915C305.963 69.4119 307.25 70.8011 308.273 72.6591C309.296 74.517 309.807 77.0057 309.807 80.125V106H303.773V100.682H303.466C303.057 101.534 302.375 102.446 301.421 103.418C300.466 104.389 299.196 105.216 297.611 105.898C296.026 106.58 294.091 106.92 291.807 106.92ZM292.727 101.5C295.114 101.5 297.125 101.031 298.761 100.094C300.415 99.1562 301.659 97.946 302.494 96.4631C303.347 94.9801 303.773 93.4205 303.773 91.7841V86.2614C303.517 86.5682 302.955 86.8494 302.085 87.1051C301.233 87.3437 300.244 87.5568 299.119 87.7443C298.011 87.9148 296.929 88.0682 295.872 88.2045C294.832 88.3239 293.989 88.4261 293.341 88.5114C291.773 88.7159 290.307 89.0483 288.943 89.5085C287.597 89.9517 286.506 90.625 285.671 91.5284C284.852 92.4148 284.443 93.625 284.443 95.1591C284.443 97.2557 285.219 98.8409 286.77 99.9148C288.338 100.972 290.324 101.5 292.727 101.5ZM340.375 106.818C336.693 106.818 333.523 105.949 330.864 104.21C328.204 102.472 326.159 100.077 324.727 97.0256C323.295 93.9744 322.579 90.4886 322.579 86.5682C322.579 82.5795 323.312 79.0597 324.778 76.0085C326.261 72.9403 328.324 70.5455 330.966 68.8239C333.625 67.0852 336.727 66.2159 340.273 66.2159C343.034 66.2159 345.523 66.7273 347.739 67.75C349.954 68.7727 351.77 70.2045 353.185 72.0455C354.599 73.8864 355.477 76.0341 355.818 78.4886H349.784C349.324 76.6989 348.301 75.1136 346.716 73.733C345.148 72.3352 343.034 71.6364 340.375 71.6364C338.023 71.6364 335.96 72.25 334.187 73.4773C332.432 74.6875 331.06 76.4006 330.071 78.6165C329.099 80.8153 328.614 83.3977 328.614 86.3636C328.614 89.3977 329.091 92.0398 330.045 94.2898C331.017 96.5398 332.381 98.2869 334.136 99.5312C335.909 100.776 337.989 101.398 340.375 101.398C341.943 101.398 343.366 101.125 344.645 100.58C345.923 100.034 347.006 99.25 347.892 98.2273C348.778 97.2045 349.409 95.9773 349.784 94.5455H355.818C355.477 96.8636 354.633 98.9517 353.287 100.81C351.957 102.651 350.193 104.116 347.994 105.207C345.812 106.281 343.273 106.818 340.375 106.818ZM384.705 106.818C380.921 106.818 377.657 105.983 374.912 104.312C372.185 102.625 370.08 100.273 368.597 97.2557C367.131 94.2216 366.398 90.6932 366.398 86.6705C366.398 82.6477 367.131 79.1023 368.597 76.0341C370.08 72.9489 372.143 70.5455 374.785 68.8239C377.444 67.0852 380.546 66.2159 384.091 66.2159C386.137 66.2159 388.157 66.5568 390.151 67.2386C392.145 67.9205 393.961 69.0284 395.597 70.5625C397.233 72.0795 398.537 74.0909 399.509 76.5966C400.481 79.1023 400.966 82.1875 400.966 85.8523V88.4091H370.694V83.1932H394.83C394.83 80.9773 394.387 79 393.5 77.2614C392.631 75.5227 391.387 74.1506 389.768 73.1449C388.165 72.1392 386.273 71.6364 384.091 71.6364C381.688 71.6364 379.608 72.233 377.853 73.4261C376.114 74.6023 374.776 76.1364 373.839 78.0284C372.901 79.9205 372.432 81.9489 372.432 84.1136V87.5909C372.432 90.5568 372.944 93.071 373.966 95.1335C375.006 97.179 376.447 98.7386 378.287 99.8125C380.128 100.869 382.268 101.398 384.705 101.398C386.29 101.398 387.722 101.176 389 100.733C390.296 100.273 391.412 99.5909 392.35 98.6875C393.287 97.767 394.012 96.625 394.523 95.2614L400.353 96.8977C399.739 98.875 398.708 100.614 397.259 102.114C395.81 103.597 394.02 104.756 391.89 105.591C389.759 106.409 387.364 106.818 384.705 106.818Z" fill="#FFB800"/>
<path d="M92.3546 66.7273L91.3616 66.8449L91.4661 67.7273H92.3546V66.7273ZM88.6217 60.6932L88.073 61.5292L88.073 61.5292L88.6217 60.6932ZM74.508 59.6705L74.1119 58.7522L74.1086 58.7537L74.508 59.6705ZM70.4683 62.7642L69.6645 62.1692L69.6595 62.176L70.4683 62.7642ZM70.0336 70.8438L69.1994 71.3952L69.2048 71.4034L69.2104 71.4115L70.0336 70.8438ZM72.6416 73.3239L72.1091 74.1704L72.119 74.1765L72.6416 73.3239ZM75.9654 74.9347L75.6203 75.8733L75.6326 75.8776L75.9654 74.9347ZM79.1614 75.9318L79.4214 74.9662L79.4159 74.9647L79.1614 75.9318ZM84.4796 77.3636L84.2196 78.3293L84.2257 78.3309L84.4796 77.3636ZM89.0308 78.8466L88.6775 79.7821L88.6807 79.7833L89.0308 78.8466ZM93.8631 81.429L93.2836 82.244L93.2939 82.2512L93.8631 81.429ZM97.6984 85.571L98.5574 85.0591L98.5574 85.0591L97.6984 85.571ZM96.9825 99.4545L96.1437 98.91L96.1409 98.9144L96.9825 99.4545ZM90.5393 104.901L90.1096 103.998L90.1074 103.999L90.5393 104.901ZM70.545 105.105L70.1394 106.019L70.1415 106.02L70.545 105.105ZM64.1018 100.043L63.2889 100.625L63.2919 100.629L64.1018 100.043ZM61.4683 92.5V91.5H60.3943L60.4708 92.5712L61.4683 92.5ZM68.0137 92.5L69.01 92.4141L68.9312 91.5H68.0137V92.5ZM70.008 97.4091L69.2627 98.0759L69.2721 98.0861L70.008 97.4091ZM74.4569 100.273L74.1245 101.216L74.1353 101.22L74.4569 100.273ZM86.8063 100.017L87.1834 100.943L87.1904 100.94L86.8063 100.017ZM91.383 96.6932L92.1658 97.3156L92.1694 97.311L91.383 96.6932ZM91.6131 87.4375L92.3599 86.7724L92.3599 86.7724L91.6131 87.4375ZM87.7779 84.7784L87.3828 85.697L87.3828 85.697L87.7779 84.7784ZM82.6387 82.9886L82.364 83.9502L82.3711 83.9522L82.6387 82.9886ZM76.1955 81.1477L75.9192 82.1088L75.9208 82.1093L76.1955 81.1477ZM66.4796 76.1108L65.8049 76.8488L65.8049 76.8488L66.4796 76.1108ZM65.2779 59.875L64.4697 59.2861L64.4689 59.2872L65.2779 59.875ZM71.7211 54.7614L72.131 55.6735L72.1336 55.6723L71.7211 54.7614ZM89.7978 54.7358L89.3791 55.6439L89.384 55.6462L89.7978 54.7358ZM96.0364 59.6449L95.2317 60.2385L95.2349 60.2428L96.0364 59.6449ZM98.491 66.7273V67.7273H99.5238L99.4905 66.695L98.491 66.7273ZM93.3477 66.6097C93.0061 63.7253 91.5991 61.451 89.1703 59.8571L88.073 61.5292C90.0079 62.799 91.0895 64.5474 91.3616 66.8449L93.3477 66.6097ZM89.1703 59.8571C86.7934 58.2973 83.9164 57.5455 80.5933 57.5455V59.5455C83.611 59.5455 86.0863 60.2254 88.073 61.5292L89.1703 59.8571ZM80.5933 57.5455C78.1686 57.5455 76.0004 57.9376 74.1119 58.7522L74.9041 60.5887C76.493 59.9033 78.3815 59.5455 80.5933 59.5455V57.5455ZM74.1086 58.7537C72.2508 59.563 70.7552 60.6959 69.6645 62.1692L71.272 63.3592C72.1245 62.2075 73.3221 61.2779 74.9074 60.5872L74.1086 58.7537ZM69.6595 62.176C68.5768 63.6647 68.0364 65.3635 68.0364 67.2386H70.0364C70.0364 65.7729 70.4506 64.4887 71.277 63.3524L69.6595 62.176ZM68.0364 67.2386C68.0364 68.8004 68.4101 70.2011 69.1994 71.3952L70.8678 70.2923C70.3276 69.475 70.0364 68.4723 70.0364 67.2386H68.0364ZM69.2104 71.4115C69.9723 72.5162 70.9421 73.4362 72.1091 74.1703L73.174 72.4774C72.2274 71.8819 71.4586 71.1486 70.8568 70.276L69.2104 71.4115ZM72.119 74.1765C73.2318 74.8585 74.3992 75.4243 75.6204 75.8732L76.3105 73.9961C75.2135 73.5928 74.165 73.0847 73.1641 72.4713L72.119 74.1765ZM75.6326 75.8776C76.812 76.2939 77.9039 76.6349 78.9069 76.8989L79.4159 74.9647C78.4758 74.7173 77.437 74.3936 76.2982 73.9917L75.6326 75.8776ZM78.9015 76.8974L84.2197 78.3293L84.7396 76.398L79.4214 74.9662L78.9015 76.8974ZM84.2257 78.3309C85.5483 78.678 87.0315 79.1607 88.6775 79.7821L89.384 77.911C87.6891 77.2711 86.1383 76.7651 84.7335 76.3964L84.2257 78.3309ZM88.6807 79.7833C90.2831 80.3822 91.8172 81.2011 93.2836 82.2439L94.4427 80.614C92.8409 79.475 91.1534 78.5723 89.3808 77.9099L88.6807 79.7833ZM93.2939 82.2512C94.7225 83.2402 95.9039 84.5132 96.8394 86.083L98.5574 85.0591C97.4815 83.2538 96.1061 81.7655 94.4324 80.6068L93.2939 82.2512ZM96.8394 86.083C97.7324 87.5814 98.2069 89.4652 98.2069 91.7841H100.207C100.207 89.1939 99.6758 86.9357 98.5574 85.0591L96.8394 86.083ZM98.2069 91.7841C98.2069 94.4283 97.5172 96.7946 96.1437 98.91L97.8212 99.9991C99.4137 97.5463 100.207 94.799 100.207 91.7841H98.2069ZM96.1409 98.9144C94.7905 101.018 92.7972 102.719 90.1096 103.998L90.969 105.804C93.9404 104.389 96.2426 102.459 97.8241 99.9947L96.1409 98.9144ZM90.1074 103.999C87.463 105.265 84.2015 105.92 80.2864 105.92V107.92C84.4168 107.92 87.9906 107.23 90.9711 105.803L90.1074 103.999ZM80.2864 105.92C76.6417 105.92 73.5381 105.332 70.9485 104.19L70.1415 106.02C73.0405 107.299 76.4312 107.92 80.2864 107.92V105.92ZM70.9506 104.191C68.3654 103.044 66.3646 101.462 64.9116 99.456L63.2919 100.629C64.9753 102.953 67.27 104.746 70.1394 106.019L70.9506 104.191ZM64.9146 99.4602C63.4795 97.4572 62.6582 95.1231 62.4657 92.4288L60.4708 92.5712C60.6874 95.6041 61.6218 98.2985 63.2889 100.625L64.9146 99.4602ZM61.4683 93.5H68.0137V91.5H61.4683V93.5ZM67.0174 92.5859C67.2037 94.747 67.9393 96.5967 69.2628 98.0759L70.7533 96.7423C69.7585 95.6305 69.1646 94.2076 69.01 92.4141L67.0174 92.5859ZM69.2721 98.0861C70.569 99.4958 72.1951 100.536 74.1245 101.216L74.7892 99.3296C73.1392 98.7481 71.7994 97.8792 70.744 96.732L69.2721 98.0861ZM74.1353 101.22C76.0546 101.871 78.1073 102.193 80.2864 102.193V100.193C78.3065 100.193 76.4728 99.9013 74.7785 99.3258L74.1353 101.22ZM80.2864 102.193C82.8153 102.193 85.1196 101.783 87.1834 100.943L86.4293 99.0908C84.6408 99.8189 82.5985 100.193 80.2864 100.193V102.193ZM87.1904 100.94C89.2484 100.084 90.9202 98.8819 92.1657 97.3156L90.6003 96.0708C89.5959 97.334 88.2165 98.3475 86.4223 99.0937L87.1904 100.94ZM92.1694 97.311C93.4398 95.694 94.0705 93.8033 94.0705 91.6818H92.0705C92.0705 93.3785 91.5762 94.8287 90.5967 96.0754L92.1694 97.311ZM94.0705 91.6818C94.0705 89.7471 93.5246 88.0801 92.3599 86.7724L90.8664 88.1026C91.6449 88.9767 92.0705 90.1392 92.0705 91.6818H94.0705ZM92.3599 86.7724C91.275 85.5543 89.8685 84.589 88.173 83.8598L87.3828 85.697C88.8578 86.3314 90.0081 87.1389 90.8664 88.1026L92.3599 86.7724ZM88.173 83.8598C86.5423 83.1584 84.7862 82.5473 82.9064 82.0251L82.3711 83.9522C84.1731 84.4527 85.8431 85.0348 87.3828 85.697L88.173 83.8598ZM82.9134 82.0271L76.4703 80.1862L75.9208 82.1093L82.364 83.9502L82.9134 82.0271ZM76.4718 80.1867C72.4842 79.0402 69.3968 77.4229 67.1544 75.3728L65.8049 76.8488C68.3352 79.1623 71.7251 80.903 75.9192 82.1088L76.4718 80.1867ZM67.1544 75.3728C64.9955 73.3989 63.9001 70.8217 63.9001 67.5455H61.9001C61.9001 71.326 63.1911 74.4591 65.8049 76.8488L67.1544 75.3728ZM63.9001 67.5455C63.9001 64.8054 64.6368 62.4587 66.0869 60.4628L64.4689 59.2872C62.7486 61.6549 61.9001 64.4219 61.9001 67.5455H63.9001ZM66.0861 60.4639C67.5773 58.4174 69.5825 56.8187 72.131 55.6735L71.3112 53.8492C68.4733 55.1245 66.183 56.9348 64.4697 59.2861L66.0861 60.4639ZM72.1336 55.6723C74.6991 54.5106 77.5816 53.9205 80.7978 53.9205V51.9205C77.3322 51.9205 74.1635 52.5576 71.3086 53.8504L72.1336 55.6723ZM80.7978 53.9205C84.0523 53.9205 86.9056 54.5035 89.3791 55.6439L90.2165 53.8277C87.44 52.5476 84.2933 51.9205 80.7978 51.9205V53.9205ZM89.384 55.6462C91.8722 56.7771 93.8101 58.3115 95.2317 60.2385L96.8412 59.0512C95.1946 56.8192 92.9734 55.0808 90.2116 53.8254L89.384 55.6462ZM95.2349 60.2428C96.6613 62.1552 97.4127 64.3177 97.4915 66.7595L99.4905 66.695C99.3988 63.8528 98.5138 61.2937 96.838 59.047L95.2349 60.2428ZM98.491 65.7273H92.3546V67.7273H98.491V65.7273ZM118.448 53.6364H119.448V52.6364H118.448V53.6364ZM118.448 106V107H119.448V106H118.448ZM112.414 106H111.414V107H112.414V106ZM112.414 53.6364V52.6364H111.414V53.6364H112.414ZM117.448 53.6364V106H119.448V53.6364H117.448ZM118.448 105H112.414V107H118.448V105ZM113.414 106V53.6364H111.414V106H113.414ZM112.414 54.6364H118.448V52.6364H112.414V54.6364ZM139.722 104.287L139.186 105.131L139.189 105.133L139.722 104.287ZM133.484 97.2045L132.585 97.6437L132.587 97.6477L133.484 97.2045ZM133.484 75.8551L132.586 75.4139L132.584 75.418L133.484 75.8551ZM139.722 68.7472L139.189 67.9013L139.186 67.9028L139.722 68.7472ZM158.361 68.7472L157.826 69.5915L157.828 69.593L158.361 68.7472ZM164.6 75.8551L163.701 76.2923L163.703 76.2963L164.6 75.8551ZM164.6 97.2045L163.704 96.7614L163.702 96.7654L164.6 97.2045ZM158.361 104.287L157.828 103.441L157.826 103.443L158.361 104.287ZM155.702 99.3267L155.08 98.5436L155.08 98.5436L155.702 99.3267ZM159.563 93.8807L160.501 94.2287L160.501 94.2287L159.563 93.8807ZM159.563 79.2301L160.501 78.8844L160.501 78.8844L159.563 79.2301ZM155.702 73.733L156.329 72.9536L156.329 72.9536L155.702 73.733ZM142.407 73.733L141.78 72.9536L141.78 72.9536L142.407 73.733ZM138.546 79.2301L137.608 78.8844L137.608 78.8844L138.546 79.2301ZM138.546 93.8807L137.609 94.2287L137.609 94.2287L138.546 93.8807ZM142.407 99.3267L143.029 98.5436L143.029 98.5436L142.407 99.3267ZM149.055 105.818C145.674 105.818 142.753 105.016 140.256 103.441L139.189 105.133C142.043 106.933 145.344 107.818 149.055 107.818V105.818ZM140.258 103.443C137.765 101.861 135.805 99.644 134.38 96.7614L132.587 97.6477C134.162 100.833 136.361 103.338 139.186 105.131L140.258 103.443ZM134.382 96.7654C132.978 93.8929 132.259 90.5031 132.259 86.5682H130.259C130.259 90.7469 131.023 94.448 132.585 97.6437L134.382 96.7654ZM132.259 86.5682C132.259 82.598 132.978 79.182 134.383 76.2922L132.584 75.418C131.023 78.6305 130.259 82.3566 130.259 86.5682H132.259ZM134.381 76.2963C135.807 73.3966 137.767 71.1726 140.258 69.5915L139.186 67.9028C136.36 69.6967 134.161 72.2113 132.586 75.4139L134.381 76.2963ZM140.256 69.593C142.753 68.018 145.674 67.2159 149.055 67.2159V65.2159C145.344 65.2159 142.043 66.1013 139.189 67.9013L140.256 69.593ZM149.055 67.2159C152.435 67.2159 155.346 68.0181 157.826 69.5915L158.897 67.9028C156.058 66.1012 152.765 65.2159 149.055 65.2159V67.2159ZM157.828 69.593C160.335 71.1738 162.293 73.3962 163.701 76.2922L165.499 75.418C163.941 72.2118 161.74 69.6955 158.895 67.9013L157.828 69.593ZM163.703 76.2963C165.123 79.185 165.85 82.5995 165.85 86.5682H167.85C167.85 82.355 167.077 78.6275 165.497 75.4139L163.703 76.2963ZM165.85 86.5682C165.85 90.5015 165.123 93.8898 163.704 96.7614L165.497 97.6477C167.077 94.4511 167.85 90.7485 167.85 86.5682H165.85ZM163.702 96.7654C162.295 99.6444 160.336 101.859 157.828 103.441L158.895 105.133C161.739 103.34 163.94 100.833 165.499 97.6437L163.702 96.7654ZM157.826 103.443C155.346 105.016 152.435 105.818 149.055 105.818V107.818C152.765 107.818 156.058 106.933 158.897 105.131L157.826 103.443ZM149.055 102.398C151.924 102.398 154.373 101.659 156.324 100.11L155.08 98.5436C153.554 99.7558 151.572 100.398 149.055 100.398V102.398ZM156.324 100.11C158.217 98.6065 159.607 96.6354 160.501 94.2287L158.626 93.5327C157.849 95.6259 156.665 97.2856 155.08 98.5436L156.324 100.11ZM160.501 94.2287C161.381 91.8573 161.816 89.3008 161.816 86.5682H159.816C159.816 89.0855 159.416 91.404 158.626 93.5327L160.501 94.2287ZM161.816 86.5682C161.816 83.8354 161.381 81.2714 160.501 78.8844L158.625 79.5758C159.416 81.723 159.816 84.0509 159.816 86.5682H161.816ZM160.501 78.8844C159.609 76.4618 158.221 74.4743 156.329 72.9536L155.076 74.5123C156.661 75.7871 157.847 77.4643 158.625 79.5758L160.501 78.8844ZM156.329 72.9536C154.378 71.3852 151.927 70.6364 149.055 70.6364V72.6364C151.569 72.6364 153.549 73.2853 155.076 74.5123L156.329 72.9536ZM149.055 70.6364C146.182 70.6364 143.731 71.3852 141.78 72.9536L143.033 74.5123C144.56 73.2853 146.54 72.6364 149.055 72.6364V70.6364ZM141.78 72.9536C139.889 74.4743 138.5 76.4618 137.608 78.8844L139.484 79.5758C140.262 77.4643 141.448 75.7871 143.033 74.5123L141.78 72.9536ZM137.608 78.8844C136.728 81.2714 136.293 83.8354 136.293 86.5682H138.293C138.293 84.0509 138.693 81.723 139.484 79.5758L137.608 78.8844ZM136.293 86.5682C136.293 89.3008 136.728 91.8573 137.609 94.2287L139.484 93.5327C138.693 91.404 138.293 89.0855 138.293 86.5682H136.293ZM137.609 94.2287C138.502 96.6354 139.892 98.6065 141.785 100.11L143.029 98.5436C141.445 97.2856 140.261 95.6259 139.484 93.5327L137.609 94.2287ZM141.785 100.11C143.736 101.659 146.185 102.398 149.055 102.398V100.398C146.538 100.398 144.555 99.7558 143.029 98.5436L141.785 100.11ZM196.741 66.7273H197.741V65.7273H196.741V66.7273ZM196.741 71.8409V72.8409H197.741V71.8409H196.741ZM176.388 71.8409H175.388V72.8409H176.388V71.8409ZM176.388 66.7273V65.7273H175.388V66.7273H176.388ZM182.32 57.3182V56.3182H181.32V57.3182H182.32ZM188.354 57.3182H189.354V56.3182H188.354V57.3182ZM189.096 98.5852L188.231 99.0869L188.237 99.0972L188.243 99.1074L189.096 98.5852ZM191.039 100.273L190.692 101.211L190.704 101.215L190.717 101.219L191.039 100.273ZM195.206 100.58L195.364 101.567L195.384 101.564L195.403 101.56L195.206 100.58ZM196.229 100.375L197.205 100.154L196.989 99.2032L196.033 99.3944L196.229 100.375ZM197.456 105.795L197.808 106.732L198.624 106.425L198.432 105.575L197.456 105.795ZM195.743 106.256L195.539 105.277L195.528 105.279L195.517 105.282L195.743 106.256ZM187.945 105.412L187.533 106.323L187.536 106.325L187.945 105.412ZM183.905 102.062L183.088 102.638L183.092 102.645L183.905 102.062ZM195.741 66.7273V71.8409H197.741V66.7273H195.741ZM196.741 70.8409H176.388V72.8409H196.741V70.8409ZM177.388 71.8409V66.7273H175.388V71.8409H177.388ZM176.388 67.7273H196.741V65.7273H176.388V67.7273ZM182.32 58.3182H188.354V56.3182H182.32V58.3182ZM187.354 57.3182V94.75H189.354V57.3182H187.354ZM187.354 94.75C187.354 96.5185 187.605 98.008 188.231 99.0869L189.961 98.0835C189.598 97.4579 189.354 96.3906 189.354 94.75H187.354ZM188.243 99.1074C188.85 100.1 189.663 100.83 190.692 101.211L191.386 99.3347C190.847 99.1357 190.364 98.741 189.949 98.0631L188.243 99.1074ZM190.717 101.219C191.626 101.529 192.579 101.682 193.57 101.682V99.6818C192.788 99.6818 192.054 99.5618 191.361 99.3261L190.717 101.219ZM193.57 101.682C194.263 101.682 194.866 101.647 195.364 101.567L195.048 99.5921C194.695 99.6487 194.207 99.6818 193.57 99.6818V101.682ZM195.403 101.56C195.829 101.475 196.17 101.407 196.425 101.356L196.033 99.3944C195.777 99.4456 195.436 99.5137 195.01 99.599L195.403 101.56ZM195.254 100.596L196.481 106.016L198.432 105.575L197.205 100.154L195.254 100.596ZM197.105 104.859C196.766 104.986 196.251 105.128 195.539 105.277L195.948 107.234C196.701 107.077 197.329 106.911 197.808 106.732L197.105 104.859ZM195.517 105.282C194.885 105.429 194.039 105.511 192.956 105.511V107.511C194.124 107.511 195.136 107.424 195.97 107.23L195.517 105.282ZM192.956 105.511C191.4 105.511 189.868 105.178 188.354 104.499L187.536 106.325C189.294 107.112 191.104 107.511 192.956 107.511V105.511ZM188.357 104.501C186.905 103.843 185.694 102.843 184.718 101.48L183.092 102.645C184.264 104.282 185.747 105.515 187.533 106.323L188.357 104.501ZM184.723 101.487C183.811 100.192 183.32 98.5152 183.32 96.3864H181.32C181.32 98.8257 181.886 100.933 183.088 102.638L184.723 101.487ZM183.32 96.3864V57.3182H181.32V96.3864H183.32ZM211.079 106H210.079V107H211.079V106ZM211.079 53.6364V52.6364H210.079V53.6364H211.079ZM238.846 55.8608L238.352 56.7301L238.359 56.7339L238.846 55.8608ZM244.676 61.8182L243.783 62.2678L243.783 62.2678L244.676 61.8182ZM244.676 78.6165L243.781 78.1693L243.779 78.1741L244.676 78.6165ZM238.897 84.6506L239.392 85.5199L239.396 85.5174L238.897 84.6506ZM216.193 86.875H215.193V87.875H216.193V86.875ZM216.193 81.25V80.25H215.193V81.25H216.193ZM235.446 79.7926L234.95 78.9238L234.95 78.9238L235.446 79.7926ZM239.153 75.8551L238.248 75.4302L238.246 75.4343L239.153 75.8551ZM239.153 64.5795L238.246 65.0004L238.25 65.008L239.153 64.5795ZM235.42 60.6932L234.935 61.5678L234.942 61.5714L235.42 60.6932ZM217.42 59.2614V58.2614H216.42V59.2614H217.42ZM217.42 106V107H218.42V106H217.42ZM212.079 106V53.6364H210.079V106H212.079ZM211.079 54.6364H228.772V52.6364H211.079V54.6364ZM228.772 54.6364C232.768 54.6364 235.94 55.3587 238.352 56.7301L239.341 54.9915C236.536 53.397 232.992 52.6364 228.772 52.6364V54.6364ZM238.359 56.7339C240.822 58.1097 242.618 59.9537 243.783 62.2678L245.569 61.3685C244.211 58.6713 242.12 56.5437 239.334 54.9877L238.359 56.7339ZM243.783 62.2678C244.967 64.6205 245.568 67.2596 245.568 70.2045H247.568C247.568 66.979 246.907 64.0272 245.569 61.3685L243.783 62.2678ZM245.568 70.2045C245.568 73.1493 244.967 75.7981 243.781 78.1693L245.57 79.0637C246.907 76.3894 247.568 73.4302 247.568 70.2045H245.568ZM243.779 78.1741C242.629 80.5064 240.847 82.3754 238.399 83.7837L239.396 85.5174C242.163 83.9258 244.234 81.772 245.573 79.0588L243.779 78.1741ZM238.403 83.7813C235.99 85.1533 232.835 85.875 228.875 85.875V87.875C233.062 87.875 236.589 87.1137 239.392 85.5199L238.403 83.7813ZM228.875 85.875H216.193V87.875H228.875V85.875ZM217.193 86.875V81.25H215.193V86.875H217.193ZM216.193 82.25H228.67V80.25H216.193V82.25ZM228.67 82.25C231.585 82.25 234.034 81.7483 235.941 80.6614L234.95 78.9238C233.448 79.7801 231.38 80.25 228.67 80.25V82.25ZM235.941 80.6614C237.811 79.5952 239.199 78.1325 240.06 76.2759L238.246 75.4343C237.573 76.8845 236.489 78.0468 234.95 78.9238L235.941 80.6614ZM240.058 76.28C240.913 74.4596 241.329 72.428 241.329 70.2045H239.329C239.329 72.1743 238.962 73.9097 238.248 75.4302L240.058 76.28ZM241.329 70.2045C241.329 67.9813 240.913 65.9566 240.057 64.1511L238.25 65.008C238.961 66.5093 239.329 68.2346 239.329 70.2045H241.329ZM240.06 64.1587C239.196 62.2958 237.793 60.8468 235.898 59.815L234.942 61.5714C236.49 62.4146 237.576 63.5565 238.246 65.0004L240.06 64.1587ZM235.905 59.8186C233.983 58.7532 231.513 58.2614 228.568 58.2614V60.2614C231.316 60.2614 233.414 60.7241 234.935 61.5677L235.905 59.8186ZM228.568 58.2614H217.42V60.2614H228.568V58.2614ZM216.42 59.2614V106H218.42V59.2614H216.42ZM217.42 105H211.079V107H217.42V105ZM265.598 53.6364H266.598V52.6364H265.598V53.6364ZM265.598 106V107H266.598V106H265.598ZM259.564 106H258.564V107H259.564V106ZM259.564 53.6364V52.6364H258.564V53.6364H259.564ZM264.598 53.6364V106H266.598V53.6364H264.598ZM265.598 105H259.564V107H265.598V105ZM260.564 106V53.6364H258.564V106H260.564ZM259.564 54.6364H265.598V52.6364H259.564V54.6364ZM285.031 105.514L284.606 106.419L284.612 106.422L285.031 105.514ZM280.199 101.398L279.364 101.949L279.367 101.952L280.199 101.398ZM279.739 89.3807L280.583 89.9162L280.586 89.9116L279.739 89.3807ZM288.202 84.267L288.416 85.2439L288.423 85.2424L288.202 84.267ZM293.648 83.2955L293.52 82.3036L293.518 82.3039L293.648 83.2955ZM299.452 82.6051L299.555 83.5999L299.565 83.5987L299.452 82.6051ZM302.725 81.7614L302.235 80.8892L302.226 80.8945L302.725 81.7614ZM301.702 73.6307L300.986 74.329L300.99 74.3334L301.702 73.6307ZM288.713 73.4261L289.324 74.2181L289.324 74.2181L288.713 73.4261ZM285.261 77.4659L284.925 78.4076L285.784 78.7145L286.168 77.887L285.261 77.4659ZM279.534 75.4205L278.615 75.0265L278.196 76.0044L279.198 76.3622L279.534 75.4205ZM283.625 69.8466L284.24 70.6351L284.241 70.6343L283.625 69.8466ZM289.25 67.0341L289.502 68.0018L289.508 68.0003L289.25 67.0341ZM299.631 66.6761L299.446 67.6591L299.458 67.6611L299.631 66.6761ZM304.412 68.4915L303.898 69.349L303.902 69.3515L304.412 68.4915ZM308.273 72.6591L307.397 73.1413L307.397 73.1413L308.273 72.6591ZM309.807 106V107H310.807V106H309.807ZM303.773 106H302.773V107H303.773V106ZM303.773 100.682H304.773V99.6818H303.773V100.682ZM303.466 100.682V99.6818H302.837L302.564 100.249L303.466 100.682ZM301.421 103.418L302.134 104.118L302.134 104.118L301.421 103.418ZM297.611 105.898L297.216 104.979L297.611 105.898ZM298.761 100.094L298.268 99.2238L298.264 99.2261L298.761 100.094ZM302.494 96.4631L301.627 95.9648L301.623 95.9723L302.494 96.4631ZM303.773 86.2614H304.773V83.4993L303.005 85.6212L303.773 86.2614ZM302.085 87.1051L302.355 88.0682L302.367 88.0645L302.085 87.1051ZM299.119 87.7443L299.271 88.7328L299.284 88.7307L299.119 87.7443ZM295.872 88.2045L295.986 89.1981L296 89.1963L295.872 88.2045ZM293.341 88.5114L293.47 89.503L293.471 89.5028L293.341 88.5114ZM288.943 89.5085L289.256 90.4584L289.263 90.456L288.943 89.5085ZM285.671 91.5284L284.936 90.8496L284.936 90.8501L285.671 91.5284ZM286.77 99.9148L286.201 100.737L286.211 100.744L286.77 99.9148ZM291.807 105.92C289.447 105.92 287.334 105.477 285.451 104.606L284.612 106.422C286.786 107.427 289.19 107.92 291.807 107.92V105.92ZM285.457 104.609C283.586 103.729 282.119 102.475 281.031 100.843L279.367 101.952C280.665 103.9 282.42 105.39 284.606 106.419L285.457 104.609ZM281.033 100.847C279.967 99.2311 279.409 97.2493 279.409 94.8523H277.409C277.409 97.5689 278.045 99.9507 279.364 101.949L281.033 100.847ZM279.409 94.8523C279.409 92.7259 279.829 91.1059 280.583 89.9162L278.894 88.8451C277.876 90.4509 277.409 92.4786 277.409 94.8523H279.409ZM280.586 89.9116C281.38 88.6448 282.436 87.6564 283.768 86.9366L282.817 85.177C281.184 86.0595 279.87 87.287 278.891 88.8498L280.586 89.9116ZM283.768 86.9366C285.162 86.1836 286.709 85.6177 288.416 85.2439L287.988 83.2902C286.115 83.7005 284.389 84.3278 282.817 85.177L283.768 86.9366ZM288.423 85.2424C290.2 84.84 291.984 84.5216 293.778 84.287L293.518 82.3039C291.663 82.5466 289.818 82.8759 287.981 83.2917L288.423 85.2424ZM293.775 84.2873C296.158 83.981 298.083 83.752 299.555 83.5998L299.349 81.6104C297.854 81.765 295.911 81.9963 293.52 82.3036L293.775 84.2873ZM299.565 83.5987C301.099 83.4244 302.358 83.1257 303.223 82.6283L302.226 80.8945C301.728 81.1811 300.805 81.4449 299.339 81.6115L299.565 83.5987ZM303.214 82.6335C304.3 82.0241 304.773 80.9583 304.773 79.7159H302.773C302.773 80.4167 302.547 80.7145 302.235 80.8892L303.214 82.6335ZM304.773 79.7159V79.5114H302.773V79.7159H304.773ZM304.773 79.5114C304.773 76.8036 304.027 74.5619 302.413 72.9279L300.99 74.3334C302.138 75.4949 302.773 77.1736 302.773 79.5114H304.773ZM302.418 72.9324C300.798 71.2724 298.421 70.5341 295.489 70.5341V72.5341C298.113 72.5341 299.878 73.1935 300.986 74.329L302.418 72.9324ZM295.489 70.5341C292.473 70.5341 289.971 71.1937 288.103 72.6341L289.324 74.2181C290.728 73.1358 292.744 72.5341 295.489 72.5341V70.5341ZM288.103 72.6341C286.377 73.9643 285.104 75.4294 284.354 77.0448L286.168 77.887C286.748 76.6388 287.777 75.4107 289.324 74.2181L288.103 72.6341ZM285.598 76.5242L279.871 74.4787L279.198 76.3622L284.925 78.4076L285.598 76.5242ZM280.453 75.8144C281.423 73.552 282.693 71.8419 284.24 70.6351L283.01 69.0581C281.148 70.5104 279.691 72.5162 278.615 75.0265L280.453 75.8144ZM284.241 70.6343C285.86 69.3683 287.612 68.4942 289.502 68.0018L288.998 66.0664C286.832 66.6308 284.834 67.6317 283.009 69.0589L284.241 70.6343ZM289.508 68.0003C291.475 67.4757 293.4 67.2159 295.284 67.2159V65.2159C293.214 65.2159 291.116 65.5016 288.992 66.0679L289.508 68.0003ZM295.284 67.2159C296.468 67.2159 297.853 67.3602 299.446 67.659L299.815 65.6933C298.136 65.3784 296.623 65.2159 295.284 65.2159V67.2159ZM299.458 67.6611C300.983 67.9284 302.462 68.4874 303.898 69.349L304.927 67.634C303.294 66.6546 301.585 66.0035 299.803 65.6911L299.458 67.6611ZM303.902 69.3515C305.274 70.166 306.445 71.4119 307.397 73.1413L309.149 72.1769C308.055 70.1904 306.652 68.6579 304.922 67.6315L303.902 69.3515ZM307.397 73.1413C308.309 74.7982 308.807 77.1005 308.807 80.125H310.807C310.807 76.9108 310.282 74.2359 309.149 72.1769L307.397 73.1413ZM308.807 80.125V106H310.807V80.125H308.807ZM309.807 105H303.773V107H309.807V105ZM304.773 106V100.682H302.773V106H304.773ZM303.773 99.6818H303.466V101.682H303.773V99.6818ZM302.564 100.249C302.219 100.969 301.616 101.792 300.707 102.717L302.134 104.118C303.135 103.1 303.895 102.099 304.368 101.115L302.564 100.249ZM300.707 102.717C299.864 103.575 298.712 104.335 297.216 104.979L298.006 106.816C299.68 106.096 301.068 105.204 302.134 104.118L300.707 102.717ZM297.216 104.979C295.789 105.593 293.997 105.92 291.807 105.92V107.92C294.185 107.92 296.263 107.566 298.006 106.816L297.216 104.979ZM292.727 102.5C295.243 102.5 297.436 102.006 299.259 100.961L298.264 99.2261C296.814 100.057 294.985 100.5 292.727 100.5V102.5ZM299.255 100.964C301.047 99.9472 302.431 98.6131 303.366 96.9538L301.623 95.9723C300.887 97.2789 299.782 98.3653 298.268 99.2239L299.255 100.964ZM303.361 96.9614C304.297 95.3339 304.773 93.6034 304.773 91.7841H302.773C302.773 93.2375 302.397 94.6263 301.627 95.9648L303.361 96.9614ZM304.773 91.7841V86.2614H302.773V91.7841H304.773ZM303.005 85.6212C303.007 85.6188 302.991 85.6382 302.94 85.6747C302.89 85.7106 302.816 85.7559 302.712 85.808C302.501 85.9134 302.203 86.028 301.803 86.1457L302.367 88.0645C302.836 87.9265 303.255 87.7727 303.606 87.5968C303.948 87.4261 304.289 87.2043 304.541 86.9015L303.005 85.6212ZM301.816 86.1421C301.006 86.3688 300.054 86.5747 298.955 86.7579L299.284 88.7307C300.435 88.5389 301.46 88.3187 302.355 88.0681L301.816 86.1421ZM298.967 86.7559C297.867 86.9252 296.793 87.0775 295.744 87.2128L296 89.1963C297.065 89.0589 298.156 88.9043 299.271 88.7327L298.967 86.7559ZM295.758 87.2111C294.716 87.3307 293.866 87.4337 293.211 87.5199L293.471 89.5028C294.111 89.4186 294.949 89.317 295.986 89.198L295.758 87.2111ZM293.212 87.5198C291.585 87.7319 290.055 88.078 288.623 88.561L289.263 90.456C290.559 90.0186 291.961 89.6999 293.47 89.503L293.212 87.5198ZM288.631 88.5586C287.148 89.0467 285.903 89.8036 284.936 90.8496L286.405 92.2073C287.108 91.4464 288.046 90.8567 289.256 90.4584L288.631 88.5586ZM284.936 90.8501C283.904 91.9674 283.443 93.4445 283.443 95.1591H285.443C285.443 93.8055 285.8 92.8621 286.405 92.2067L284.936 90.8501ZM283.443 95.1591C283.443 97.5412 284.347 99.4533 286.201 100.737L287.339 99.0926C286.091 98.2285 285.443 96.9702 285.443 95.1591H283.443ZM286.211 100.744C287.984 101.939 290.179 102.5 292.727 102.5V100.5C290.469 100.5 288.692 100.004 287.329 99.0855L286.211 100.744ZM330.864 104.21L330.316 105.047L330.316 105.047L330.864 104.21ZM324.778 76.0085L323.878 75.5734L323.877 75.5755L324.778 76.0085ZM330.966 68.8239L331.512 69.6617L331.513 69.6608L330.966 68.8239ZM353.185 72.0455L353.978 71.4361L353.978 71.4361L353.185 72.0455ZM355.818 78.4886V79.4886H356.967L356.809 78.3511L355.818 78.4886ZM349.784 78.4886L348.816 78.7377L349.009 79.4886H349.784V78.4886ZM346.716 73.733L346.05 74.4795L346.059 74.487L346.716 73.733ZM334.187 73.4773L334.755 74.3006L334.757 74.2995L334.187 73.4773ZM330.071 78.6165L329.158 78.209L329.156 78.2123L330.071 78.6165ZM330.045 94.2898L329.125 94.6803L329.127 94.6862L330.045 94.2898ZM334.136 99.5312L333.558 100.347L333.562 100.35L334.136 99.5312ZM344.645 100.58L344.252 99.6598L344.252 99.6598L344.645 100.58ZM347.892 98.2273L348.648 98.8822L348.648 98.8822L347.892 98.2273ZM349.784 94.5455V93.5455H349.012L348.817 94.2921L349.784 94.5455ZM355.818 94.5455L356.807 94.6909L356.976 93.5455H355.818V94.5455ZM353.287 100.81L352.477 100.223L352.476 100.224L353.287 100.81ZM347.994 105.207L348.436 106.105L348.439 106.103L347.994 105.207ZM340.375 105.818C336.856 105.818 333.883 104.989 331.411 103.373L330.316 105.047C333.163 106.908 336.53 107.818 340.375 107.818V105.818ZM331.411 103.373C328.917 101.742 326.991 99.4946 325.632 96.6007L323.822 97.4504C325.328 100.659 327.492 103.201 330.316 105.047L331.411 103.373ZM325.632 96.6007C324.272 93.7026 323.579 90.3656 323.579 86.5682H321.579C321.579 90.6116 322.318 94.2463 323.822 97.4504L325.632 96.6007ZM323.579 86.5682C323.579 82.7029 324.289 79.3355 325.68 76.4416L323.877 75.5755C322.336 78.7838 321.579 82.4562 321.579 86.5682H323.579ZM325.679 76.4437C327.089 73.5258 329.035 71.2758 331.512 69.6617L330.42 67.986C327.613 69.8151 325.434 72.3549 323.878 75.5734L325.679 76.4437ZM331.513 69.6608C333.991 68.0407 336.898 67.2159 340.273 67.2159V65.2159C336.556 65.2159 333.259 66.1298 330.419 67.9869L331.513 69.6608ZM340.273 67.2159C342.908 67.2159 345.251 67.7034 347.32 68.658L348.158 66.842C345.794 65.7512 343.16 65.2159 340.273 65.2159V67.2159ZM347.32 68.658C349.396 69.6164 351.081 70.9488 352.392 72.6548L353.978 71.4361C352.459 69.4603 350.513 67.929 348.158 66.842L347.32 68.658ZM352.392 72.6548C353.694 74.349 354.509 76.3314 354.828 78.6262L356.809 78.3511C356.446 75.7368 355.505 73.4237 353.978 71.4361L352.392 72.6548ZM355.818 77.4886H349.784V79.4886H355.818V77.4886ZM350.753 78.2396C350.235 76.2276 349.089 74.4736 347.373 72.9789L346.059 74.487C347.513 75.7537 348.412 77.1701 348.816 78.7377L350.753 78.2396ZM347.381 72.9864C345.585 71.3855 343.212 70.6364 340.375 70.6364V72.6364C342.856 72.6364 344.71 73.2849 346.05 74.4795L347.381 72.9864ZM340.375 70.6364C337.839 70.6364 335.573 71.3015 333.618 72.6551L334.757 74.2995C336.347 73.1985 338.207 72.6364 340.375 72.6364V70.6364ZM333.62 72.6539C331.693 73.9822 330.211 75.849 329.158 78.209L330.984 79.0239C331.909 76.9521 333.171 75.3928 334.755 74.3006L333.62 72.6539ZM329.156 78.2123C328.117 80.5646 327.614 83.2902 327.614 86.3636H329.614C329.614 83.5052 330.082 81.0661 330.986 79.0206L329.156 78.2123ZM327.614 86.3636C327.614 89.5005 328.107 92.2808 329.125 94.6803L330.966 93.8992C330.075 91.7987 329.614 89.2949 329.614 86.3636H327.614ZM329.127 94.6862C330.161 97.0806 331.633 98.9827 333.558 100.347L334.715 98.7154C333.128 97.5912 331.873 95.9989 330.963 93.8933L329.127 94.6862ZM333.562 100.35C335.52 101.724 337.805 102.398 340.375 102.398V100.398C338.172 100.398 336.298 99.827 334.711 98.7128L333.562 100.35ZM340.375 102.398C342.061 102.398 343.62 102.104 345.037 101.499L344.252 99.6598C343.113 100.146 341.826 100.398 340.375 100.398V102.398ZM345.037 101.499C346.451 100.896 347.659 100.023 348.648 98.8822L347.136 97.5723C346.352 98.4772 345.395 99.1722 344.252 99.6598L345.037 101.499ZM348.648 98.8822C349.644 97.7331 350.341 96.3648 350.751 94.7988L348.817 94.2921C348.477 95.5897 347.913 96.676 347.136 97.5723L348.648 98.8822ZM349.784 95.5455H355.818V93.5455H349.784V95.5455ZM354.829 94.4C354.511 96.5622 353.727 98.4982 352.477 100.223L354.097 101.397C355.54 99.4052 356.444 97.1651 356.807 94.6909L354.829 94.4ZM352.476 100.224C351.249 101.923 349.615 103.287 347.55 104.312L348.439 106.103C350.771 104.946 352.665 103.378 354.098 101.395L352.476 100.224ZM347.553 104.31C345.532 105.305 343.149 105.818 340.375 105.818V107.818C343.397 107.818 346.093 107.258 348.436 106.105L347.553 104.31ZM374.912 104.312L374.386 105.163L374.392 105.167L374.912 104.312ZM368.597 97.2557L367.697 97.6907L367.7 97.6968L368.597 97.2557ZM368.597 76.0341L367.696 75.6009L367.695 75.603L368.597 76.0341ZM374.785 68.8239L375.331 69.6617L375.332 69.6608L374.785 68.8239ZM390.151 67.2386L390.475 66.2924L390.475 66.2924L390.151 67.2386ZM395.597 70.5625L394.913 71.292L394.917 71.2958L395.597 70.5625ZM399.509 76.5966L400.441 76.2351L400.441 76.2351L399.509 76.5966ZM400.966 88.4091V89.4091H401.966V88.4091H400.966ZM370.694 88.4091H369.694V89.4091H370.694V88.4091ZM370.694 83.1932V82.1932H369.694V83.1932H370.694ZM394.83 83.1932V84.1932H395.83V83.1932H394.83ZM393.5 77.2614L392.606 77.7086L392.61 77.7155L393.5 77.2614ZM389.768 73.1449L389.236 73.9919L389.24 73.9944L389.768 73.1449ZM377.853 73.4261L378.413 74.2544L378.415 74.2532L377.853 73.4261ZM373.839 78.0284L372.943 77.5844L372.943 77.5844L373.839 78.0284ZM373.966 95.1335L373.07 95.5778L373.075 95.5867L373.966 95.1335ZM378.287 99.8125L377.784 100.676L377.79 100.68L378.287 99.8125ZM389 100.733L389.328 101.678L389.335 101.675L389 100.733ZM392.35 98.6875L393.044 99.4076L393.051 99.4011L392.35 98.6875ZM394.523 95.2614L394.793 94.2986L393.909 94.0504L393.587 94.9102L394.523 95.2614ZM400.353 96.8977L401.308 97.1941L401.612 96.2127L400.623 95.9349L400.353 96.8977ZM397.259 102.114L397.974 102.812L397.978 102.808L397.259 102.114ZM391.89 105.591L392.248 106.524L392.255 106.522L391.89 105.591ZM384.705 105.818C381.071 105.818 377.994 105.018 375.432 103.458L374.392 105.167C377.319 106.948 380.771 107.818 384.705 107.818V105.818ZM375.439 103.462C372.879 101.878 370.899 99.6716 369.495 96.8146L367.7 97.6968C369.261 100.874 371.491 103.372 374.386 105.163L375.439 103.462ZM369.497 96.8206C368.109 93.946 367.398 90.5714 367.398 86.6705H365.398C365.398 90.815 366.154 94.4972 367.697 97.6907L369.497 96.8206ZM367.398 86.6705C367.398 82.7699 368.109 79.3763 369.499 76.4652L367.695 75.603C366.154 78.8282 365.398 82.5256 365.398 86.6705H367.398ZM369.498 76.4673C370.909 73.5323 372.855 71.275 375.331 69.6617L374.239 67.986C371.43 69.816 369.251 72.3654 367.696 75.6009L369.498 76.4673ZM375.332 69.6608C377.81 68.0407 380.717 67.2159 384.091 67.2159V65.2159C380.375 65.2159 377.078 66.1298 374.237 67.9869L375.332 69.6608ZM384.091 67.2159C386.023 67.2159 387.934 67.5376 389.828 68.1849L390.475 66.2924C388.379 65.5761 386.25 65.2159 384.091 65.2159V67.2159ZM389.828 68.1849C391.679 68.8179 393.373 69.8486 394.913 71.292L396.281 69.833C394.548 68.2082 392.612 67.023 390.475 66.2924L389.828 68.1849ZM394.917 71.2958C396.422 72.6907 397.649 74.5654 398.577 76.9581L400.441 76.2351C399.426 73.6164 398.045 71.4683 396.277 69.8292L394.917 71.2958ZM398.577 76.9581C399.491 79.3149 399.966 82.2691 399.966 85.8523H401.966C401.966 82.1059 401.471 78.8896 400.441 76.2351L398.577 76.9581ZM399.966 85.8523V88.4091H401.966V85.8523H399.966ZM400.966 87.4091H370.694V89.4091H400.966V87.4091ZM371.694 88.4091V83.1932H369.694V88.4091H371.694ZM370.694 84.1932H394.83V82.1932H370.694V84.1932ZM395.83 83.1932C395.83 80.8409 395.359 78.7045 394.391 76.8072L392.61 77.7155C393.415 79.2955 393.83 81.1136 393.83 83.1932H395.83ZM394.395 76.8141C393.445 74.9135 392.075 73.4007 390.295 72.2954L389.24 73.9944C390.699 74.9005 391.818 76.1319 392.606 77.7086L394.395 76.8141ZM390.299 72.2979C388.514 71.1777 386.432 70.6364 384.091 70.6364V72.6364C386.115 72.6364 387.816 73.1007 389.236 73.9919L390.299 72.2979ZM384.091 70.6364C381.515 70.6364 379.233 71.2787 377.291 72.5991L378.415 74.2532C379.983 73.1872 381.861 72.6364 384.091 72.6364V70.6364ZM377.292 72.5979C375.41 73.8715 373.956 75.5384 372.943 77.5844L374.735 78.4724C375.596 76.7344 376.819 75.333 378.413 74.2544L377.292 72.5979ZM372.943 77.5844C371.935 79.618 371.432 81.7989 371.432 84.1136H373.432C373.432 82.0989 373.867 80.2229 374.735 78.4724L372.943 77.5844ZM371.432 84.1136V87.5909H373.432V84.1136H371.432ZM371.432 87.5909C371.432 90.668 371.962 93.3433 373.07 95.5778L374.862 94.6893C373.925 92.7988 373.432 90.4457 373.432 87.5909H371.432ZM373.075 95.5867C374.195 97.7897 375.764 99.4981 377.784 100.676L378.791 98.9487C377.129 97.9791 375.818 96.5683 374.858 94.6804L373.075 95.5867ZM377.79 100.68C379.803 101.836 382.119 102.398 384.705 102.398V100.398C382.416 100.398 380.453 99.9029 378.785 98.9452L377.79 100.68ZM384.705 102.398C386.383 102.398 387.928 102.163 389.328 101.678L388.673 99.7881C387.516 100.189 386.197 100.398 384.705 100.398V102.398ZM389.335 101.675C390.757 101.17 391.998 100.415 393.044 99.4076L391.656 97.9674C390.827 98.7665 389.835 99.3754 388.666 99.7907L389.335 101.675ZM393.051 99.4011C394.103 98.3678 394.903 97.0977 395.46 95.6125L393.587 94.9102C393.121 96.1523 392.472 97.1663 391.649 97.9739L393.051 99.4011ZM394.253 96.2242L400.083 97.8605L400.623 95.9349L394.793 94.2986L394.253 96.2242ZM399.398 96.6013C398.831 98.4281 397.881 100.031 396.54 101.419L397.978 102.808C399.535 101.197 400.647 99.3219 401.308 97.1941L399.398 96.6013ZM396.544 101.415C395.204 102.786 393.537 103.871 391.525 104.66L392.255 106.522C394.503 105.64 396.417 104.407 397.974 102.812L396.544 101.415ZM391.531 104.657C389.532 105.425 387.261 105.818 384.705 105.818V107.818C387.467 107.818 389.986 107.393 392.248 106.524L391.531 104.657Z" fill="url(#paint1_linear_3_15)"/>
<defs>
<linearGradient id="paint0_linear_3_15" x1="210" y1="8" x2="210" y2="153" gradientUnits="userSpaceOnUse">
<stop stop-color="#0164F8"/>
<stop offset="0.578125" stop-color="#1F1D86" stop-opacity="0"/>
</linearGradient>
<linearGradient id="paint1_linear_3_15" x1="231" y1="33" x2="231" y2="127" gradientUnits="userSpaceOnUse">
<stop stop-color="#D9D9D9"/>
<stop offset="0.791667" stop-color="#313146" stop-opacity="0"/>
</linearGradient>
</defs>
</svg>
