<?xml version="1.0" encoding="utf-8"?>
<!-- Generator: Adobe Illustrator 24.0.1, SVG Export Plug-In . SVG Version: 6.00 Build 0)  -->
<svg version="1.1" id="Layer_1" xmlns="http://www.w3.org/2000/svg" xmlns:xlink="http://www.w3.org/1999/xlink" x="0px" y="0px"
	 viewBox="0 0 406.8 406.8" style="enable-background:new 0 0 406.8 406.8;" xml:space="preserve">
<style type="text/css">
	.st0{fill:#091E40;}
</style>
<path class="st0" d="M0,0v406.8h406.8V0H0z M400,399.2c-68.4,0-136.9,0-205.3,0c0-31.9-0.1-63.8,0-95.7
	c37.9-0.4,76.1-14.9,102.7-42.2c15.1-14.9,26-33.8,31.8-54.1c4.6-16.2,6.1-33.2,6.2-50c-34.9-0.2-69.8,0-104.7-0.1
	c0,14.4,0,28.7,0,43c14.2,0.1,28.4-0.3,42.6,0.2c-4.2,16.6-14.7,31.4-28.8,41.1c-14.4,10.1-32.2,15.1-49.7,14.9
	c0-60.5,0-120.9,0-181.4c27.7-0.2,54.3,15.7,68.8,39c5.6,0.3,11.1,0.2,16.7,0.2c14.7-0.2,29.3,0.3,44-0.3
	c-13.3-35.9-44.2-63.7-79.7-77c-15.9-6-32.8-8.7-49.7-9.2c0-6.9,0-13.9,0-20.8H400V399.2z M194.2,75c-27.6-1-55.1,13.1-70.8,35.7
	c-5.8,8-9.8,17.3-12.7,26.7c-1.5,5.8-2.3,11.6-3.1,17.5c-0.3,11.1-0.5,22.2,1.9,33c2.8,12.6,7.9,24.8,15.8,35.1
	c9.4,12.3,22.2,21.9,36.6,27.6c2.4,0.8,4.7,1.5,7,2.3c2.8,0.9,5.6,1.6,8.5,2.2c5.6,0.8,11.1,1.4,16.8,1.1c-0.1,15.8,0,31.7-0.1,47.5
	c-7.2-0.6-14.5-0.7-21.7-1.6c-6.6-0.9-13-2.5-19.5-4.2c-18.4-5.3-35.7-14.5-50.4-26.8c-22-18.3-37.8-43.8-44.6-71.5
	c-2.6-9.3-3.3-19-4.3-28.5c-0.5-9.7,0.4-19.4,1.8-29c3-19.3,10.4-37.8,21.3-53.9c7.6-11.2,17-21.1,27.4-29.6
	c19.8-15.9,44-25.9,69.1-29.4c6.9-1.2,14-1,21.1-1.8C194.2,43.3,194.4,59.1,194.2,75z M176.9,337.2c-5.1,13.7-10.8,27.3-15.9,41
	c-1.7-0.1-3.4,0-5.1-0.4c-5.8-13.6-10.9-27.5-16.4-41.2c-0.1,13.8,0,27.7,0,41.5c-2.3,0-4.7,0-7,0c0-16.6,0-33.1,0-49.6
	c3.5,0,7.1,0.1,10.6,0c5,12.9,10.4,25.6,15.4,38.5c4.8-12.9,10.2-25.5,15-38.4c3.7-0.2,7.5-0.1,11.2-0.1c0,16.5,0,33.1,0,49.6
	c-2.6,0-5.1,0-7.7,0C176.9,364.5,177.2,350.8,176.9,337.2z M125.3,378.2c-3-0.1-5.9-0.1-8.9-0.4c-1.3-3.9-3.1-7.6-4.5-11.4
	c-7,0-14-0.2-21,0.1c-1.9,3.7-3,7.8-4.7,11.6c-2.9,0-5.8,0-8.7,0c5.7-13.1,10.9-26.4,16.5-39.6c1.2-3.4,2.6-6.8,4.3-10.1
	c2.3,0.1,4.7,0.1,7.1,0.2C111.8,345.2,118.6,361.7,125.3,378.2z M35.4,365.7c6.5,7.7,19.8,8.5,26.8,1c2.2-1.9,3.5-4.6,4.4-7.4
	c-7.3,0-14.5,0-21.8,0c0-2.1,0-4.1,0-6.2c10.2,0,20.5,0.1,30.7,0c0.4,8-3.4,16.2-10.1,20.7c-3.1,2.3-6.8,3.6-10.5,4.6
	c-8.7,2-18.5-0.7-24.6-7.3c-2.9-2.9-4.5-6.8-6.2-10.5c-1.2-5.3-1-10.8,0.4-16.1c2.2-3.8,3.9-8,7.5-10.7c6.5-5.2,15.6-7.9,23.6-5.5
	c7.7,1.7,14.3,7.2,17.8,14.3c-2.9,0.1-5.9,0.1-8.8,0.1c-2.8-2.8-5.6-6-9.6-7.2c-8.7-3.5-19.4,1.9-22.6,10.5
	C29.8,352.5,31.1,360.2,35.4,365.7z M213.7,349.3c-0.1,3.7-0.6,7.7,1.3,11.1c2.8,5.5,9.8,9.3,15.7,6.6c3-0.9,4.9-3.5,6.9-5.6
	c0.1-0.5,0.3-1.5,0.5-2c4.6-0.3,9.2-0.2,13.9-0.2c-2.4,8.8-9.4,16.6-18.5,18.7c-8.1,2.5-16.9,0-23.7-4.9c-4.2-3.7-7.4-8.6-8.5-14.1
	c-2.1-9,1.1-19.5,8.6-25.4c7.9-6.7,19.9-8,29.1-3c6.9,3.2,11,10,13.3,16.9c-4.6,0-9.2,0.1-13.7-0.1c-2-6.6-9.2-9.8-15.7-8.4
	C218.5,340.7,214.8,344.5,213.7,349.3z M283.9,328.7c-3.3,0-6.6,0-9.9,0c-7,16.3-13.5,32.9-19.9,49.6c4.4,0,8.8-0.1,13.2,0
	c1.2-2.3,2.1-4.7,3-7.1c5.7,0,11.5-0.1,17.3,0c0.7,2.4,1.5,4.7,2.2,7c4.6-0.1,9.2-0.1,13.8,0c-6.2-15.6-12.3-31.2-18.6-46.7
	C284.6,330.6,284.3,329.6,283.9,328.7z M273.5,360.8c1.3-4.3,2.8-8.5,3.9-12.8c0.5-1.5,1-3,1.5-4.5c1.4,5.9,3.2,11.7,5.2,17.4
	C280.6,360.9,277,360.9,273.5,360.8z M310.5,328.7c0,16.5,0,32.9-0.2,49.6c3.9,0,7.9,0,11.8,0c0-5.4,0-10.8,0.1-16.2
	c4.1,5.3,7.7,10.9,11.8,16.2c4.8,0,9.5,0,14.3,0c-4.6-5.7-8.8-11.6-13.7-16.9c4.7-0.7,8.6-3.7,10.9-7.7c2.1-5.3,2.5-11.4-0.4-16.5
	c-2-5-7.4-7.9-12.6-8.2C325.1,328.5,317.8,328.8,310.5,328.7z M334.8,343.3c0,2.2,0.2,4.4-0.2,6.6c-2.7,4.1-8,3.3-12.3,3.3
	c0-4.4,0-8.9,0-13.3C326.7,339.8,331.9,339.1,334.8,343.3z M384,378.2c-9.1,0-18.3,0-27.4,0c0-16.6,0-33.1,0-49.5
	c9.1,0,18.3,0,27.4,0c0,3.7,0,7.5,0,11.2c-5.2,0-10.5,0-15.7,0c0,2.5,0,5.1,0,7.7c5,0,9.9,0,14.9,0c0,3.7-0.1,7.4,0,11.1
	c-5,0-9.9,0-14.9,0c0,2.9,0,5.7,0,8.6c5.2,0,10.5,0,15.7,0C383.9,370.9,383.9,374.6,384,378.2z M92.9,360.1c2.8-7.5,5.6-15,8.5-22.4
	c2.7,7.5,5.6,15,8.5,22.4C104.2,360.1,98.6,360.1,92.9,360.1z"/>
</svg>
