<?xml version="1.0" encoding="utf-8"?>
<!-- Generator: Adobe Illustrator 24.0.1, SVG Export Plug-In . SVG Version: 6.00 Build 0)  -->
<svg version="1.1" id="Layer_1" xmlns="http://www.w3.org/2000/svg" xmlns:xlink="http://www.w3.org/1999/xlink" x="0px" y="0px"
	 viewBox="0 0 55 42" style="enable-background:new 0 0 55 42;" xml:space="preserve">
<style type="text/css">
	.st0{fill:#091E40;}
</style>
<title>gamstop-logo copy</title>
<g>
	<g>
		<g>
			<path id="Shape" class="st0" d="M52.6,0.5h-42C5,0.5,0.4,5.1,0.4,10.8V39c0,1.2,1,2.1,2.1,2.1h42c5.7,0,10.3-4.6,10.3-10.3V2.6
				C54.8,1.5,53.8,0.5,52.6,0.5L52.6,0.5z M53.3,30.8c0,4.9-4,8.9-8.9,8.9h-42c-0.4,0-0.7-0.3-0.7-0.7V22.1c0-0.4,0.3-0.7,0.7-0.7
				h50.2c0.4,0,0.7,0.3,0.7,0.7L53.3,30.8L53.3,30.8z M53.3,19.5c0,0.4-0.3,0.7-0.7,0.7H2.4c-0.4,0-0.7-0.3-0.7-0.7v-8.7
				C1.8,6,5.7,2,10.6,2h42c0.4,0,0.7,0.3,0.7,0.7L53.3,19.5L53.3,19.5z"/>
			<path id="Path" class="st0" d="M18.9,10.3h-5.3c-0.1,0-0.1,0.1-0.1,0.1v2.7c0,0.1,0.1,0.1,0.1,0.1h2.3c0.1,0,0.1,0.1,0.1,0.1v0.5
				c0,0,0,0.1,0,0.1c-0.3,0.2-0.6,0.4-1,0.5c-0.4,0.1-0.8,0.1-1.2,0.1c-0.4,0-0.8-0.1-1.2-0.3c-0.4-0.2-0.7-0.4-1-0.7
				c-0.3-0.3-0.6-0.7-0.8-1.2c-0.2-0.4-0.3-0.9-0.3-1.3s0.1-0.9,0.3-1.3c0.2-0.4,0.4-0.8,0.8-1.2c0.3-0.3,0.7-0.6,1.2-0.8
				c0.4-0.2,0.9-0.3,1.3-0.3c0.4,0,0.9,0.1,1.3,0.3c0.4,0.2,0.7,0.4,1.1,0.7c0.1,0.1,0.1,0.1,0.2,0l1.9-1.9c0,0,0-0.1,0-0.2
				c-0.6-0.6-1.3-1-2-1.3c-0.8-0.3-1.6-0.5-2.4-0.5c-0.9,0-1.6,0.2-2.5,0.5c-0.8,0.3-1.5,0.8-2.1,1.4C8.8,7.1,8.3,7.8,8,8.6
				c-0.3,0.8-0.5,1.6-0.5,2.5c0,0.8,0.2,1.6,0.5,2.4c0.3,0.8,0.8,1.5,1.4,2.1c0.6,0.6,1.3,1.1,2.1,1.4c0.8,0.3,1.6,0.5,2.5,0.5
				c0.3,0,0.7,0,1-0.1c0.3-0.1,0.6-0.1,0.8-0.2c0.1,0,0.2,0,0.2,0.1c0,0.1,0,0.1,0.1,0.1h2.7c0.1,0,0.1,0,0.1-0.1v-7
				C19.1,10.4,19,10.3,18.9,10.3L18.9,10.3z"/>
			<path id="Shape_1_" class="st0" d="M28.1,4.6h-2.7c-0.1,0-0.1,0-0.1,0.1L21,17.4c0,0.1,0,0.2,0.1,0.2H24c0,0,0.1,0,0.1-0.1
				l0.5-1.4c0-0.1,0.1-0.1,0.1-0.1h3.9c0,0,0.1,0,0.1,0.1l0.5,1.4c0,0,0.1,0.1,0.1,0.1h2.9c0.1,0,0.2-0.1,0.1-0.2L28.3,4.7
				C28.2,4.7,28.2,4.6,28.1,4.6z M27.6,13h-1.7c-0.1,0-0.1-0.1-0.1-0.2l0.9-2.6c0-0.1,0.2-0.1,0.3,0l0.9,2.6
				C27.7,12.9,27.7,13,27.6,13z"/>
			<path id="Path_1_" class="st0" d="M46.6,4.6h-2.8c0,0-0.1,0-0.1,0.1L41,12.3c0,0.1-0.2,0.1-0.2,0l-2.7-7.6c0-0.1-0.1-0.1-0.1-0.1
				h-2.8c-0.1,0-0.1,0.1-0.1,0.1l-0.8,12.7c0,0.1,0,0.1,0.1,0.1H37c0.1,0,0.1,0,0.1-0.1l0.3-4.7c0-0.1,0.2-0.1,0.3,0l1.7,4.8
				c0,0.1,0.1,0.1,0.1,0.1h2.8c0.1,0,0.1,0,0.1-0.1l1.5-4.6c0-0.1,0.3-0.1,0.3,0l0.3,4.5c0,0.1,0.1,0.1,0.1,0.1h2.7
				c0.1,0,0.1-0.1,0.1-0.1L46.7,4.7C46.7,4.7,46.7,4.6,46.6,4.6z M11.7,29c-0.2-0.1-0.4-0.2-0.6-0.2c-0.2-0.1-0.4-0.1-0.6-0.2
				c-0.2-0.1-0.4-0.1-0.6-0.2c-0.2-0.1-0.4-0.2-0.6-0.3C9.1,28,9,27.9,8.9,27.7c-0.1-0.2,0-0.4,0.1-0.6c0.1-0.1,0.2-0.2,0.3-0.3
				c0.1-0.1,0.2-0.1,0.3-0.1c0.1,0,0.2,0,0.3,0c0.1,0,0.1,0,0.1,0c0,0,0,0,0,0c0.1,0,0.3,0.1,0.4,0.2c0.1,0.1,0.2,0.2,0.3,0.4
				c0,0.1,0.1,0.1,0.1,0.1h2.6c0.1,0,0.1,0,0.1-0.1c0-0.4-0.1-0.8-0.2-1.1c-0.1-0.4-0.3-0.8-0.6-1.1c-0.3-0.3-0.6-0.6-0.9-0.8
				c-0.4-0.2-0.8-0.4-1.2-0.5c-0.5-0.1-0.9-0.2-1.4-0.1c-0.4,0-0.9,0.1-1.2,0.3c-0.4,0.2-0.8,0.4-1.1,0.7c-0.3,0.3-0.6,0.6-0.8,1
				C6,26.1,5.9,26.6,5.8,27c0,0.5,0,0.9,0.1,1.4c0.1,0.4,0.3,0.9,0.6,1.2c0.3,0.4,0.6,0.7,1,1c0.3,0.2,0.6,0.4,0.9,0.5
				c0.3,0.1,0.6,0.2,0.9,0.3c0.1,0.1,0.3,0.1,0.5,0.2c0.1,0.1,0.3,0.1,0.4,0.2c0.2,0.1,0.3,0.2,0.4,0.3c0.1,0.1,0.2,0.2,0.3,0.3
				s0.1,0.2,0.1,0.3c0,0.1,0,0.2,0,0.2c0,0,0,0.1,0,0.2c0,0.1-0.1,0.2-0.1,0.3c-0.1,0.1-0.1,0.2-0.2,0.3c-0.1,0.1-0.2,0.2-0.4,0.3
				c-0.2,0.1-0.5,0.2-0.7,0.2c-0.2,0-0.5-0.1-0.7-0.2c-0.1-0.1-0.3-0.2-0.4-0.4c-0.1-0.2-0.2-0.4-0.2-0.7c0-0.1-0.1-0.1-0.1-0.1H5.5
				c-0.1,0-0.1,0-0.1,0.1c0,0.7,0.2,1.4,0.5,2c0.3,0.7,0.8,1.2,1.5,1.6c0.3,0.2,0.7,0.4,1.1,0.5C9,37,9.4,37,9.8,37c0.3,0,0.6,0,1,0
				c0.3-0.1,0.6-0.2,0.9-0.3c0.8-0.4,1.4-0.9,1.8-1.6c0.4-0.7,0.7-1.4,0.7-2.2c0-0.8-0.2-1.6-0.7-2.3C13.1,29.9,12.5,29.4,11.7,29
				L11.7,29z"/>
			<path class="st0" d="M48,25.7c-0.5-0.5-1.1-0.9-1.7-1.2c-0.6-0.3-1.3-0.4-2.1-0.5h-2.8c-0.1,0-0.1,0.1-0.1,0.1v12.7
				c0,0.1,0.1,0.1,0.1,0.1h2.7c0.1,0,0.1-0.1,0.1-0.1v-1.8c0-0.1,0-0.1,0.1-0.1c0.7,0,1.3-0.2,1.9-0.4c0.6-0.3,1.2-0.7,1.7-1.2
				c0.5-0.5,0.9-1.1,1.1-1.7c0.3-0.7,0.4-1.4,0.4-2.1s-0.2-1.4-0.4-2.1C48.8,26.8,48.5,26.2,48,25.7L48,25.7z M46.4,30.4
				c-0.1,0.3-0.3,0.6-0.5,0.8c-0.2,0.2-0.5,0.4-0.8,0.5c-0.3,0.1-0.5,0.2-0.8,0.2c-0.1,0-0.1,0-0.1-0.1v-4.6c0-0.1,0.1-0.1,0.1-0.1
				c0.3,0,0.5,0.1,0.8,0.2c0.3,0.1,0.5,0.3,0.7,0.5c0.2,0.2,0.4,0.5,0.5,0.8c0.1,0.3,0.2,0.6,0.2,0.9C46.6,29.9,46.5,30.2,46.4,30.4
				L46.4,30.4z M36.6,26c-0.6-0.6-1.3-1-2-1.4c-0.8-0.3-1.6-0.5-2.5-0.5c-0.9,0-1.7,0.2-2.5,0.5c-0.8,0.3-1.5,0.8-2.1,1.4
				c-0.6,0.6-1,1.3-1.4,2c-0.4,0.8-0.5,1.6-0.5,2.5s0.2,1.7,0.5,2.5c0.3,0.8,0.8,1.5,1.4,2.1c0.6,0.6,1.3,1,2,1.4
				c0.8,0.3,1.6,0.5,2.5,0.5c0.9,0,1.7-0.2,2.5-0.5c0.8-0.3,1.5-0.8,2.1-1.4c0.6-0.6,1-1.3,1.4-2.1c0.3-0.8,0.5-1.6,0.5-2.5
				c0-0.9-0.2-1.7-0.5-2.5C37.6,27.2,37.2,26.6,36.6,26L36.6,26z M35.3,31.9c-0.2,0.5-0.5,0.8-0.8,1.1c-0.3,0.3-0.7,0.6-1.1,0.8
				s-0.9,0.3-1.4,0.3c-0.5,0-0.9-0.1-1.4-0.3c-0.5-0.2-0.8-0.4-1.1-0.8c-0.3-0.3-0.6-0.7-0.8-1.1c-0.2-0.4-0.3-0.9-0.3-1.3
				c0-0.5,0.1-0.9,0.3-1.4c0.2-0.4,0.4-0.8,0.8-1.1c0.3-0.3,0.7-0.6,1.1-0.8c0.4-0.2,0.9-0.3,1.3-0.3c0.5,0,0.9,0.1,1.4,0.3
				c0.4,0.2,0.8,0.4,1.1,0.8c0.3,0.3,0.6,0.7,0.8,1.1c0.2,0.4,0.3,0.9,0.3,1.4C35.5,31,35.4,31.5,35.3,31.9L35.3,31.9z"/>
			<path class="st0" d="M24.1,24.1h-7.7c-0.1,0-0.1,0.1-0.1,0.1V27c0,0.1,0,0.1,0.1,0.1h2.3v9.8c0,0.1,0,0.1,0.1,0.1h2.7
				c0.1,0,0.1-0.1,0.1-0.1v-9.8H24c0.1,0,0.1-0.1,0.1-0.1v-2.7C24.2,24.2,24.1,24.1,24.1,24.1L24.1,24.1z"/>
		</g>
	</g>
</g>
</svg>
