<?xml version="1.0" encoding="utf-8"?>
<!-- Generator: Adobe Illustrator 24.0.1, SVG Export Plug-In . SVG Version: 6.00 Build 0)  -->
<svg version="1.1" id="Layer_1" xmlns="http://www.w3.org/2000/svg" xmlns:xlink="http://www.w3.org/1999/xlink" x="0px" y="0px"
	 viewBox="0 0 156 16" style="enable-background:new 0 0 156 16;" xml:space="preserve">
<style type="text/css">
	.st0{fill:#091E40;}
</style>
<path class="st0" d="M9.2,11c-0.1,1.1-1.1,1.9-2.2,1.8H4V9L6.7,9C8.2,9,9.2,9.7,9.2,11L9.2,11L9.2,11z M8.8,5.2c-0.1,1-1,1.7-2,1.6
	H4V3.4h2.6c1.3,0,2.2,0.7,2.2,1.6V5.2z M9.7,7.7c1.4-0.7,1.9-1.4,1.9-2.8c0-1.5-0.8-2.8-2.1-3.4c-0.7-0.3-1.6-0.4-4-0.4H0v2.3h1.1
	v9.5H0v2.3h7.5c2.7,0,4.6-1.6,4.6-3.9C12.2,9.7,11.2,8.2,9.7,7.7z M16.3,8.4c0.2-1.1,1.2-2,2.4-2h0.1c1.1,0,2.1,0.9,2.1,2.1
	L16.3,8.4z M16.1,10.3h7.6c0.1-1.4-0.4-2.8-1-3.9c-0.9-1.4-2.5-2.2-4.1-2.2c-2.9,0-5.1,2.3-5.1,5.6c0,3.2,2.2,5.6,5.1,5.6
	c2.5,0,4.4-1.4,4.9-3.7l-2.7,0.1c-0.3,0.9-1.2,1.6-2.2,1.5C18.2,13.2,16.4,13.1,16.1,10.3z M35.9,15.1h1.6V8.1l-4.9,0v0l-0.1,1.3
	h3.3c0,0.4,0,0.7-0.1,1.1c-0.4,1.8-1.9,3.2-3.8,3.3c-2.4,0-4.2-2.5-4.2-5.8c0-4.3,2.5-5.8,4.2-5.8c1.1,0.1,2.3,0.6,3,1.5
	c0.4,0.5,0.6,1,0.8,1.7h1.6V1.1h-1.5v2c-0.9-1.5-2.4-2.5-4.2-2.4c-3.2,0-5.7,3.2-5.7,7.3s2.5,7.2,5.8,7.2c1.1,0,2.3-0.4,3.2-1.2
	c0.4-0.4,0.8-0.8,1.1-1.3V15.1z M46.2,11.4c-0.2,1.5-1.6,2.7-3.1,2.7c-1.1,0-2.1-0.8-2.2-2c0-1.3,1.1-1.9,4.4-2.3l1-0.1V11.4z
	 M46.2,15.1h3.1l-0.1-1.3h-1.5V8c0-2.7-1.9-3.6-4.1-3.6c-1,0-2.1,0.3-2.9,0.9c-0.6,0.6-1.1,1.3-1.2,2.1h1.6c0.3-1.4,1.1-1.9,2.6-1.9
	c1.5,0,2.4,0.8,2.4,2v1l-1,0.1c-4.3,0.4-6.1,1.4-6.1,3.4v0.2c0.1,1.8,1.7,3.2,3.5,3c1.5,0,2.9-0.8,3.6-2.1L46.2,15.1L46.2,15.1z
	 M63.7,15.1h3v-1.3h-1.5V7.1c0-1.8-0.9-2.9-2.5-2.9c-0.8,0-1.6,0.4-2.3,0.9c-0.4,0.4-0.7,0.9-1,1.3c-0.3-1.5-1-2.3-2.5-2.3
	c-2,0-2.9,1.6-3.4,2.3l-0.1-2.1h-3.1v1.3H52v8.2h-1.5v1.3H55v-1.3h-1.5V8.6c0-1,1.2-3,2.8-3c1.1,0,1.5,0.6,1.5,1.9v7.7h3.1v-1.3
	h-1.6V8.4c0-0.8,1-3,2.8-3c1,0,1.5,0.7,1.5,2.2V15.1z M77.5,9.7c0,2.6-1.1,4.2-2.9,4.2c-1.7-0.1-3-1.6-3-3.3l-0.1-1.8
	c0-1.6,1.5-3.2,3.1-3.2C76.3,5.5,77.5,7.1,77.5,9.7z M79.2,9.9c0-3.1-1.8-5.6-4.2-5.6c-1.8,0-3,1.5-3.4,2.3V0.8h-2.9V2h1.4v11.8
	h-1.5v1.3h3v-2c0.6,0.9,1.5,2.1,3.4,2.1C77.2,15.3,79.2,12.8,79.2,9.9z M80,15.1h4.5v-1.3h-1.4V0.8h-3.1V2h1.5v11.9H80L80,15.1
	L80,15.1z M87.5,8.9c0-0.4,0.1-0.7,0.2-1c0.4-1.3,1.5-2.2,2.8-2.3c0.6-0.1,1.3,0.2,1.8,0.6C93,7,93.4,7.9,93.4,8.9H87.5z M87.4,10.1
	h7.7c0-3.7-2.1-5.8-4.7-5.8c-2.6,0-4.7,2.4-4.7,5.5c0,3.2,2,5.5,4.9,5.5c1.3,0,2.5-0.6,3.4-1.5c0.4-0.5,0.7-1,0.9-1.6l-1.8,0.1
	c-0.6,1.3-1.3,1.8-2.5,1.8c-0.7,0-1.4-0.3-2-0.8C87.9,12.6,87.6,11.7,87.4,10.1z M105,10h-3.7l1.8-6.2L105,10z M106.6,15.1h3.2v-2.2
	h-1.1l-3.9-11.8h-3.4l-3.8,11.8h-1.1v2.2h3.3l0.9-3h4.9L106.6,15.1z M124.4,6.4h0.9v-2h-4.2v2h1.1l-1.4,6.3L119,4.4h-2.8l-1.8,8.5
	L113,6.4h1v-2h-4.2v2h0.9l2.3,8.7h2.8l1.7-7.5l1.8,7.5h2.8L124.4,6.4z M132.9,11.2c-0.1,1.3-1.1,2.3-2.4,2.3c-1.1,0-1.8-0.6-1.8-1.4
	c0-1.5,1.6-1.7,4.1-1.9h0.1L132.9,11.2L132.9,11.2L132.9,11.2z M133,15.1h3.3v-2.1h-0.9l0.1-5c0-2.4-1.6-3.7-4.5-3.7
	c-2.5,0-4.2,1.3-4.4,3.4l2.5,0.1V7.8c0.1-1,0.6-1.6,1.9-1.6c1.3,0,1.9,0.5,1.9,2.1c-3.4,0.3-6.9,0.6-6.9,3.7c0,1.9,1.6,3.3,3.7,3.3
	c1.3,0,2.5-0.5,3.3-1.5L133,15.1L133,15.1z M143.9,6.7c0.4,0,0.8,0.1,1.3,0.1V4.3c-0.4-0.1-0.8-0.1-1.2-0.1c-1.2,0-2,0.6-2.7,1.9
	V4.4h-3.6v2.1h1v6.6h-1v2.1h4.9v-2.1h-1.3V8.9C141.5,7.6,142.6,6.6,143.9,6.7z M148.5,8.4c0.2-1.1,1.2-2,2.4-2h0.1
	c1.1,0,2.1,0.9,2.1,2.1L148.5,8.4z M148.4,10.3h7.6c0.1-1.4-0.4-2.8-1-3.9c-0.9-1.4-2.5-2.2-4.1-2.2c-2.9,0-5.1,2.3-5.1,5.6
	c0,3.2,2.2,5.6,5.1,5.6c2.5,0,4.4-1.4,4.9-3.7l-2.7,0.1c-0.3,0.9-1.2,1.6-2.2,1.5C150.5,13.2,148.7,13.1,148.4,10.3z"/>
</svg>
